<?xml version="1.0" standalone="no"?>
<!DOCTYPE svg PUBLIC "-//W3C//DTD SVG 20010904//EN"
 "http://www.w3.org/TR/2001/REC-SVG-20010904/DTD/svg10.dtd">
<svg version="1.0" xmlns="http://www.w3.org/2000/svg"
 width="48.000000pt" height="48.000000pt" viewBox="0 0 48.000000 48.000000"
 preserveAspectRatio="xMidYMid meet">
<metadata>
Created by potrace 1.16, written by Peter Selinger 2001-2019
</metadata>
<g transform="translate(0.000000,48.000000) scale(0.100000,-0.100000)"
fill="#000000" stroke="none">
<path d="M252 458 c-8 -8 -12 -47 -12 -115 0 -120 10 -112 -140 -116 l-95 -2
0 -105 0 -105 235 0 235 0 0 225 0 225 -105 3 c-73 2 -109 -1 -118 -10z"/>
<path d="M10 401 c0 -4 4 -21 10 -37 5 -16 14 -48 20 -71 8 -32 16 -43 30 -43
15 0 22 11 31 45 13 51 19 50 34 -3 7 -26 17 -38 31 -40 18 -3 24 6 37 61 9
35 19 71 23 80 4 12 1 17 -14 17 -16 0 -23 -11 -33 -51 -7 -28 -14 -47 -16
-43 -1 5 -7 28 -13 52 -9 36 -15 43 -33 40 -16 -2 -24 -14 -32 -48 -12 -49
-19 -45 -30 13 -5 27 -12 37 -26 37 -11 0 -19 -4 -19 -9z"/>
</g>
</svg>
