<?xml version="1.0" encoding="utf-8"?>
<!-- Generator: Adobe Illustrator 26.1.0, SVG Export Plug-In . SVG Version: 6.00 Build 0)  -->
<svg version="1.1" id="Layer_1" xmlns="http://www.w3.org/2000/svg" xmlns:xlink="http://www.w3.org/1999/xlink" x="0px" y="0px"
	 width="1920px" height="1080px" viewBox="0 0 1920 1080" style="enable-background:new 0 0 1920 1080;" xml:space="preserve">
<style type="text/css">
	.st0{fill:#FFFFFF;stroke:#FFFFFF;stroke-width:20;stroke-miterlimit:10;}
</style>
<g>
	<path class="st0" d="M591.42,512.93c-1.7,1.94-2.55,3.99-2.55,6.15c0,3.71,2.09,5.57,6.27,5.57c2.17,0,3.95-0.77,5.34-2.32
		c1.39-1.55,2.09-3.56,2.09-6.04c0-4.18-1.7-6.27-5.11-6.27C595.13,510.02,593.12,510.99,591.42,512.93z"/>
	<path class="st0" d="M772.48,656.5l86.35-98.42h-19.5l-16.02,18.57c1.24-3.87,1.86-6.73,1.86-8.59c0-6.65-4.64-9.98-13.93-9.98
		c-7.58,0-15.86,1.51-24.84,4.53c-8.98,3.02-17.64,7.27-26,12.77c-5.5,3.61-10.33,7.69-14.52,12.21c-5.86,5.05-13,11.26-21.46,18.67
		c-10.53,9.21-20.23,16.79-29.13,22.75c-8.9,5.96-16.06,8.94-21.47,8.94c-1.55,0-3.06-0.66-4.53-1.97c-1.47-1.31-2.2-2.75-2.2-4.29
		c0-3.87,6.04-10.37,18.11-19.5c11.29-8.2,19.42-15.82,24.37-22.87c4.95-7.04,7.43-14.12,7.43-21.24c0-7.27-2.63-10.91-7.89-10.91
		c-10.06,0-22.13,4.72-36.21,14.16c-14.08,9.44-30.72,22.13-49.91,38.07c9.9-12.69,16.48-21.59,19.73-26.69
		c3.25-5.11,4.87-10.29,4.87-15.55c0-6.65-2.63-9.98-7.89-9.98c-9.44,0-25.92,10.91-49.44,32.73v0.63
		c-11.25,10.52-23.32,20.6-36.21,30.24c-15.32,11.45-26.85,17.18-34.59,17.18c-2.94,0-3.87-1.86-2.79-5.57
		c1.08-3.71,3.56-7.74,7.43-12.07L578.88,559h-20.89c-13.36,8.13-25.27,16.64-35.75,25.54v-0.47c-13.16,11.76-22.86,20-29.13,24.72
		c-6.27,4.72-14.55,9.48-24.84,14.28c-10.29,4.8-23.33,9.44-39.11,13.93c15.32-16.25,28.09-30.76,38.3-43.52
		c10.21-12.77,22.13-29.21,35.75-49.33l9.05-13.23h8.12c20.27,0,36.91-4.45,49.91-13.35c13-8.9,23.29-22.86,30.87-41.9h-4.18
		c-5.11,10.68-10.68,19.73-16.71,27.16c-6.04,7.43-14.32,13.43-24.84,17.99c-10.53,4.57-23.91,6.85-40.16,6.85
		c16.09-24.14,33.15-46.58,51.18-67.32c18.03-20.74,37.02-37.68,56.99-50.84c19.96-13.15,39.46-19.42,58.5-18.8v-3.25
		c-29.1-2.94-56.87-2.17-83.33,2.32c-26.46,4.49-49.64,11.69-69.52,21.59c-19.89,9.91-35.48,21.82-46.77,35.75
		c-11.3,13.93-16.95,28.55-16.95,43.87c0,9.13,2.24,16.64,6.73,22.52c4.49,5.88,12.22,10.91,23.21,15.09
		c-7.58,7.74-21.12,24.84-40.62,51.3c-18.88,25.23-36.14,46.58-51.76,64.07C261.65,665.62,191,693.71,191,728.22
		c0,6.19,3.29,11.29,9.87,15.32c6.58,4.02,15.28,6.04,26.11,6.04c17.64,0,35.86-3.48,54.67-10.45c18.8-6.96,36.91-16.02,54.32-27.16
		s33.58-22.86,48.51-35.17c14.93-12.3,27.74-23.72,38.42-34.24c15.47-4.33,27.78-8.24,36.91-11.72c9.13-3.48,17.29-7.35,24.49-11.61
		c7.2-4.25,14-9.17,20.43-14.74c4.42-3.83,8.55-7.63,12.42-11.39l0,0.02c12.07-11.29,25.07-21.12,39-29.48
		c-1.08,1.08-2.21,2.29-3.37,3.6c-1.16,1.32-2.44,2.67-3.83,4.06c-25.07,25.07-37.6,45.65-37.6,61.74c0,5.42,2.55,8.12,7.66,8.12
		c8.82,0,20.2-5.18,34.12-15.55c13.93-10.37,28.4-22.75,43.41-37.14v-0.25c21.92-18.54,36.01-27.83,42.25-27.83
		c1.86,0,2.79,0.78,2.79,2.32c0,2.32-11.3,16.1-33.89,41.32l-30.87,34.82h18.11c11.45-10.52,23.6-21.24,36.44-32.15
		c12.84-10.91,26.61-21.28,41.32-31.11c14.7-9.83,25.69-14.74,32.96-14.74c5.72,0,6.77,2.52,3.13,7.54
		c-3.64,5.03-10.18,11.72-19.61,20.08c-8.2,6.96-14.62,14.12-19.27,21.47c-4.64,7.35-6.96,13.97-6.96,19.85
		c0,2.63,0.81,5.19,2.44,7.66c1.62,2.48,4.29,3.71,8.01,3.71c5.88,0,13.27-2.82,22.17-8.47c8.9-5.65,17.83-12.3,26.81-19.96
		c4.72-4.03,9.51-8.23,14.37-12.59c-3.22,6.08-4.85,12.47-4.85,19.2c0,14.24,5.42,21.35,16.25,21.35c6.34,0,15.09-3.79,26.23-11.37
		c1.7-1.24,3.87-2.63,6.5-4.18l-34.59,43.64l-3.25,1.86l-33.89,14.39c-16.09,6.65-30.18,13.81-42.25,21.47
		c-12.07,7.66-21.36,15.36-27.85,23.1c-6.5,7.74-9.75,14.86-9.75,21.35c0,4.02,1.39,7.35,4.18,9.98c2.79,2.63,6.5,3.95,11.14,3.95
		c5.26,0,10.91-1.39,16.95-4.18c6.04-2.79,13.5-7.74,22.4-14.86c8.9-7.12,20.04-17.37,33.43-30.76
		c13.39-13.39,29.98-30.91,49.79-52.58c12.07-5.57,23.75-11.92,35.05-19.03c11.29-7.12,22.28-14.89,32.96-23.33
		c10.68-8.43,23.52-19.15,38.53-32.15v-3.95c-21.82,18.42-40.51,33.31-56.06,44.68C802.07,640.13,787.02,649.38,772.48,656.5z
		 M469.09,491.92c0-10.68,4.1-22.24,12.3-34.7c8.2-12.46,20.31-23.98,36.33-34.59c16.02-10.6,36.21-19.07,60.58-25.42
		c24.37-6.34,52.11-8.97,83.22-7.89c-15.63,3.71-31.8,11.37-48.51,22.98c-16.71,11.61-32.46,24.69-47.24,39.23
		c-14.78,14.55-27.7,28.13-38.76,40.74c-11.07,12.61-20.7,23.56-28.9,32.85C478.76,519.7,469.09,508.63,469.09,491.92z
		 M361.84,685.16c-18.42,15.55-39.77,29.63-64.07,42.25c-24.29,12.61-47.66,18.92-70.1,18.92c-9.9,0-18.03-1.78-24.37-5.34
		c-6.34-3.56-9.52-7.97-9.52-13.23c0-11.92,10.02-22.94,30.06-33.08c20.04-10.14,45.42-19,76.14-26.58
		c30.72-7.58,63.79-14.01,99.23-19.27C392.72,657.5,380.26,669.61,361.84,685.16z M775.26,624.23
		c-11.92,8.82-20.97,13.23-27.16,13.23c-2.17,0-4.22-0.73-6.15-2.21c-1.93-1.47-2.9-3.13-2.9-4.99c0-5.42,4.18-13.85,12.53-25.3
		c8.36-11.45,18.22-21.59,29.6-30.41c11.37-8.82,21.39-13.23,30.06-13.23c2.94,0,5.45,0.74,7.54,2.21c2.09,1.47,3.13,3.45,3.13,5.92
		c0,5.57-4.8,13.89-14.39,24.95C797.93,605.47,787.18,615.41,775.26,624.23z M703.07,721.49c-12.84,13.93-23.87,24.06-33.08,30.41
		c-9.21,6.34-17.53,9.52-24.95,9.52c-3.71,0-6.73-0.93-9.05-2.79c-2.32-1.86-3.48-4.41-3.48-7.66c0-6.19,3.87-13.62,11.61-22.28
		c9.13-9.75,20.51-18.22,34.12-25.42c13.62-7.2,34.82-16.99,63.6-29.36C735.18,683.19,722.26,699.05,703.07,721.49z"/>
	<path class="st0" d="M1217.46,509.1c6.34-6.81,16.29-17.29,29.83-31.45c13.54-14.16,27.12-27.31,40.74-39.46
		c13.61-12.15,28.78-23.1,45.5-32.85c16.71-9.75,32.03-14.62,45.96-14.62c7.58,0,13.65,1.39,18.22,4.18
		c4.56,2.79,6.85,6.27,6.85,10.45c0,1.7-0.46,2.55-1.39,2.55c-0.31,0-1.01-0.19-2.09-0.58c-1.08-0.38-1.94-0.58-2.55-0.58
		c-4.8,0-7.2,2.4-7.2,7.2c0,4.8,2.55,7.2,7.66,7.2c2.63,0,4.8-1.08,6.5-3.25c1.7-2.17,2.55-5.03,2.55-8.59
		c0-6.81-2.63-12.15-7.89-16.02c-5.26-3.87-12.3-5.8-21.12-5.8c-13.93,0-29.06,4.61-45.38,13.81
		c-16.33,9.21-32.35,20.58-48.05,34.12c-15.71,13.54-32.23,29.25-49.56,47.12c-17.33,17.87-30.72,31.77-40.16,41.67
		c-6.66,7.12-15.48,16.45-26.46,27.97c-10.99,11.53-22.56,23.18-34.7,34.94c-12.15,11.76-24.8,22.98-37.95,33.66
		c-13.16,10.68-24.76,18.8-34.82,24.37l6.5-7.2c18.26-19.5,32.38-35.4,42.36-47.7c9.98-12.3,25.34-33.46,46.08-63.49
		c7.58-11.29,14.16-21.24,19.73-29.83c5.57-8.59,11.99-18.53,19.27-29.83c7.27-11.29,11.92-18.41,13.93-21.36
		c5.41-7.43,21.43-26.07,48.05-55.94l-3.02-2.32c-9.13,5.88-18.88,13.23-29.25,22.05c-10.37,8.82-20.74,18.38-31.11,28.67
		c-10.37,10.29-21.67,21.9-33.89,34.82c-12.23,12.92-24.84,26.5-37.84,40.74l-16.71,18.11c-15.48,16.71-27.78,29.67-36.91,38.88
		c-9.13,9.21-17.76,17.6-25.88,25.19c-8.12,7.58-17.91,15.86-29.36,24.84c-11.45,8.98-23.37,17.1-35.75,24.37l9.52-10.68
		c23.06-25.22,40.85-45.38,53.39-60.47c12.53-15.09,21.55-26.77,27.04-35.05c5.49-8.28,13.42-21.08,23.79-38.42
		c12.85-21.66,25.26-40.39,37.26-56.17c11.99-15.79,26.19-30.79,42.6-45.03c6.96-6.19,10.45-9.83,10.45-10.91
		c0-0.62-0.62-0.93-1.86-0.93c-1.24,0-2.36,0.35-3.37,1.04c-1.01,0.7-2.13,1.7-3.37,3.02c-1.24,1.32-2.79,2.9-4.64,4.76
		c-10.37,10.37-21.24,19.89-32.61,28.55c-11.38,8.67-22.56,13-33.54,13c-7.58,0-11.37-3.33-11.37-9.98c0-0.46,0.15-2.24,0.46-5.34
		c0.31-3.09,0.47-5.03,0.47-5.8c0-8.51-3.8-15.51-11.38-21.01c-7.58-5.49-17.57-8.24-29.94-8.24c-16.56,0-31.1,3.41-43.64,10.21
		c-12.53,6.81-22.28,15.36-29.25,25.65c-6.96,10.29-10.45,20.16-10.45,29.6c0,9.44,3.25,16.95,9.75,22.52
		c6.5,5.57,15.17,8.36,26,8.36c26.31,0,49.29-13,68.94-39l-1.39-2.32c-10.83,12.69-21.55,22.21-32.15,28.55
		c-10.6,6.35-22.25,9.52-34.94,9.52c-9.6,0-17.45-2.59-23.56-7.78c-6.12-5.18-9.17-11.8-9.17-19.85c0-8.2,3.25-17.21,9.75-27.04
		c6.5-9.83,15.9-18.14,28.2-24.95c12.3-6.81,26.11-10.21,41.43-10.21c6.96,0,12.92,1.04,17.87,3.13c4.95,2.09,8.67,4.64,11.14,7.66
		c2.47,3.02,3.71,5.77,3.71,8.24c0,0.93-0.31,3.48-0.93,7.66c-0.62,4.18-0.93,6.5-0.93,6.96c0,11.14,6.34,16.71,19.03,16.71
		c12.07,0,25.38-5.11,39.92-15.32l-16.71,16.71c-26.77,26.77-52.46,58.81-77.07,96.1l-3.25,5.57c-0.46,0.78-4.57,7.43-12.3,19.96
		c-13.46,21.67-25.11,39.34-34.94,53.04c-9.83,13.7-19.77,25.03-29.83,34.01l1.86,2.79c12.54-5.26,26-13.38,40.39-24.37
		c14.39-10.99,28.7-23.25,42.95-36.79c14.23-13.54,28.24-27.54,42.01-42.01c13.77-14.47,26.23-28.05,37.37-40.74l9.05-9.98
		c10.37-11.45,22.75-24.37,37.14-38.76s27.12-26.73,38.19-37.02c11.06-10.29,17.14-15.44,18.22-15.44c1.24,0-3.02,4.87-12.76,14.62
		c-8.36,8.82-17.72,19.11-28.09,30.87l-15.32,17.18c-25.53,29.25-54.01,71.26-85.42,126.04c-8.51,15.17-22.13,33.04-40.85,53.62
		l1.86,2.79c11.45-4.95,23.33-11.99,35.63-21.12c12.3-9.13,25.15-20.04,38.53-32.73c13.38-12.69,28.9-28.12,46.54-46.31
		C1191.23,535.6,1205.85,520.7,1217.46,509.1z"/>
	<path class="st0" d="M1534.89,628.76c-15.55,11.37-30.6,20.62-45.15,27.74l86.35-98.42h-19.5l-16.02,18.57
		c1.24-3.87,1.86-6.73,1.86-8.59c0-6.65-4.64-9.98-13.93-9.98c-7.58,0-15.86,1.51-24.84,4.53c-8.98,3.02-17.64,7.27-26,12.77
		c-5.5,3.61-10.33,7.69-14.52,12.21c-5.86,5.05-13,11.26-21.46,18.67c-10.53,9.21-20.24,16.79-29.13,22.75
		c-8.9,5.96-16.06,8.94-21.47,8.94c-1.55,0-3.06-0.66-4.53-1.97c-1.47-1.31-2.21-2.75-2.21-4.29c0-3.87,6.04-10.37,18.11-19.5
		c11.29-8.2,19.42-15.82,24.37-22.87c4.95-7.04,7.43-14.12,7.43-21.24c0-7.27-2.63-10.91-7.89-10.91
		c-10.06,0-22.13,4.72-36.21,14.16c-14.08,9.44-30.72,22.13-49.91,38.07c9.9-12.69,16.48-21.59,19.73-26.69
		c3.25-5.11,4.87-10.29,4.87-15.55c0-6.65-2.63-9.98-7.89-9.98c-9.44,0-25.92,10.91-49.44,32.73v0.26
		c-2.63,2.17-6.03,4.98-10.21,8.44c-9.44,7.82-17.84,14.59-25.19,20.31c-7.35,5.73-13.97,10.33-19.85,13.81
		c-5.88,3.48-10.29,5.22-13.23,5.22c-2.17,0-3.25-1.16-3.25-3.48c0-4.49,12.07-19.81,36.21-45.96c2.16-2.47,4.79-5.61,7.89-9.4
		c3.09-3.79,7.12-8.63,12.07-14.51l6.04-7.43l-19.5,1.39l-14.62,17.18c0.15-0.77,0.35-1.78,0.58-3.02c0.23-1.24,0.38-2.21,0.46-2.9
		c0.08-0.7,0.19-1.43,0.35-2.2c-0.16-3.72-1.28-6.38-3.37-8.01c-2.09-1.62-5.38-2.44-9.87-2.44c-9.13,0-18.53,1.7-28.2,5.11
		c-9.67,3.41-18.42,8.05-26.23,13.93c-7.82,5.88-14.04,12.65-18.69,20.31c-4.64,7.66-6.96,15.44-6.96,23.33
		c0,6.96,1.47,12.27,4.41,15.9c2.94,3.64,6.73,5.45,11.37,5.45c10.52,0,26.85-10.13,48.98-30.41c-4.18,9.75-6.27,17.33-6.27,22.75
		c0,5.11,2.24,7.66,6.73,7.66c6.81,0,14.66-3.17,23.56-9.52c8.9-6.34,22.63-17.25,41.2-32.73l11.84-9.98v-0.72
		c21.92-18.54,36.01-27.83,42.25-27.83c1.86,0,2.79,0.78,2.79,2.32c0,2.32-11.3,16.1-33.89,41.32l-30.87,34.82h18.11
		c11.45-10.52,23.6-21.24,36.44-32.15c12.84-10.91,26.61-21.28,41.32-31.11c14.7-9.83,25.69-14.74,32.96-14.74
		c5.72,0,6.77,2.52,3.13,7.54c-3.64,5.03-10.18,11.72-19.61,20.08c-8.21,6.96-14.63,14.12-19.27,21.47
		c-4.64,7.35-6.96,13.97-6.96,19.85c0,2.63,0.81,5.19,2.44,7.66c1.63,2.48,4.29,3.71,8.01,3.71c5.88,0,13.27-2.82,22.17-8.47
		c8.9-5.65,17.83-12.3,26.81-19.96c4.72-4.03,9.51-8.23,14.37-12.59c-3.22,6.08-4.85,12.47-4.85,19.2
		c0,14.24,5.42,21.35,16.25,21.35c6.34,0,15.09-3.79,26.23-11.37c1.7-1.24,3.87-2.63,6.5-4.18l-34.59,43.64l-3.25,1.86l-33.89,14.39
		c-16.09,6.65-30.18,13.81-42.25,21.47c-12.07,7.66-21.36,15.36-27.85,23.1c-6.5,7.74-9.75,14.86-9.75,21.35
		c0,4.02,1.39,7.35,4.18,9.98c2.79,2.63,6.5,3.95,11.14,3.95c5.26,0,10.91-1.39,16.95-4.18c6.04-2.79,13.5-7.74,22.4-14.86
		c8.9-7.12,20.04-17.37,33.43-30.76c13.39-13.39,29.98-30.91,49.79-52.58c12.07-5.57,23.75-11.92,35.05-19.03
		c11.29-7.12,22.28-14.89,32.96-23.33c10.68-8.43,23.52-19.15,38.53-32.15v-3.95C1569.13,602.49,1550.45,617.38,1534.89,628.76z
		 M1214.68,624.69c-11.92,8.82-21.05,13.23-27.39,13.23c-2.32,0-4.25-0.77-5.8-2.32c-1.55-1.55-2.32-3.48-2.32-5.8
		c0-4.79,4.22-13,12.65-24.6s18.34-21.97,29.71-31.11c11.37-9.13,21.7-13.69,30.99-13.69c5.88,0,8.82,2.71,8.82,8.12
		c0,6.35-4.8,15.09-14.39,26.23C1237.34,605.89,1226.59,615.87,1214.68,624.69z M1492.53,624.23
		c-11.92,8.82-20.97,13.23-27.16,13.23c-2.17,0-4.22-0.73-6.15-2.21c-1.93-1.47-2.9-3.13-2.9-4.99c0-5.42,4.18-13.85,12.54-25.3
		c8.36-11.45,18.22-21.59,29.6-30.41c11.37-8.82,21.39-13.23,30.06-13.23c2.94,0,5.45,0.74,7.54,2.21c2.09,1.47,3.13,3.45,3.13,5.92
		c0,5.57-4.8,13.89-14.39,24.95C1515.2,605.47,1504.44,615.41,1492.53,624.23z M1420.34,721.49
		c-12.84,13.93-23.87,24.06-33.08,30.41c-9.21,6.34-17.53,9.52-24.95,9.52c-3.71,0-6.73-0.93-9.05-2.79
		c-2.32-1.86-3.48-4.41-3.48-7.66c0-6.19,3.87-13.62,11.61-22.28c9.13-9.75,20.51-18.22,34.12-25.42
		c13.62-7.2,34.82-16.99,63.6-29.36C1452.45,683.19,1439.53,699.05,1420.34,721.49z"/>
</g>
</svg>
