<?xml version="1.0" encoding="utf-8"?>
<!-- Generator: Adobe Illustrator 26.1.0, SVG Export Plug-In . SVG Version: 6.00 Build 0)  -->
<svg version="1.1" id="Layer_1" xmlns="http://www.w3.org/2000/svg" xmlns:xlink="http://www.w3.org/1999/xlink" x="0px" y="0px"
	 viewBox="0 0 7342.1074 7220.7803" style="enable-background:new 0 0 1920 1080;" xml:space="preserve">
<style type="text/css">
	.st0{fill:#FFFFFF;stroke:#FFFFFF;stroke-miterlimit:10;}
</style>
<g>
	<path class="st0" d="M787.66,536.41c-1.24,1.41-1.86,2.9-1.86,4.48c0,2.71,1.52,4.06,4.57,4.06c1.58,0,2.88-0.56,3.89-1.69
		c1.01-1.13,1.52-2.59,1.52-4.4c0-3.04-1.24-4.57-3.72-4.57C790.37,534.29,788.9,535,787.66,536.41z"/>
	<path class="st0" d="M919.58,641.01l62.92-71.71h-14.21l-11.67,13.53c0.9-2.82,1.35-4.91,1.35-6.26c0-4.85-3.38-7.27-10.15-7.27
		c-5.53,0-11.56,1.1-18.1,3.3c-6.54,2.2-12.85,5.3-18.94,9.3c-4,2.63-7.52,5.6-10.58,8.89c-4.27,3.68-9.47,8.21-15.64,13.6
		c-7.67,6.71-14.74,12.24-21.23,16.58c-6.49,4.34-11.7,6.51-15.65,6.51c-1.13,0-2.23-0.48-3.3-1.44c-1.07-0.96-1.61-2-1.61-3.13
		c0-2.82,4.4-7.55,13.19-14.21c8.23-5.98,14.15-11.53,17.76-16.66c3.61-5.13,5.41-10.29,5.41-15.48c0-5.3-1.92-7.95-5.75-7.95
		c-7.33,0-16.13,3.44-26.39,10.32c-10.26,6.88-22.38,16.13-36.36,27.74c7.21-9.24,12.01-15.73,14.38-19.45s3.55-7.5,3.55-11.33
		c0-4.85-1.92-7.27-5.75-7.27c-6.88,0-18.89,7.95-36.03,23.85v0.46c-8.2,7.66-16.99,15.01-26.38,22.03
		c-11.16,8.35-19.56,12.52-25.2,12.52c-2.14,0-2.82-1.35-2.03-4.06c0.79-2.71,2.59-5.64,5.41-8.79l39.92-44.65H763.3
		c-9.74,5.92-18.41,12.12-26.05,18.61v-0.34c-9.59,8.57-16.66,14.58-21.23,18.01c-4.57,3.44-10.6,6.91-18.1,10.4
		c-7.5,3.5-17,6.88-28.5,10.15c11.16-11.84,20.46-22.41,27.91-31.71c7.44-9.3,16.12-21.28,26.05-35.94l6.6-9.64h5.92
		c14.77,0,26.89-3.24,36.36-9.73c9.47-6.48,16.97-16.66,22.49-30.53h-3.04c-3.72,7.78-7.78,14.38-12.18,19.79
		c-4.4,5.41-10.43,9.78-18.1,13.11c-7.67,3.33-17.42,4.99-29.26,4.99c11.73-17.59,24.16-33.94,37.29-49.05
		c13.13-15.11,26.98-27.46,41.52-37.04c14.55-9.58,28.75-14.15,42.62-13.7v-2.37c-21.2-2.14-41.44-1.58-60.72,1.69
		c-19.28,3.27-36.17,8.51-50.66,15.73c-14.49,7.22-25.85,15.9-34.08,26.05c-8.23,10.15-12.35,20.8-12.35,31.97
		c0,6.65,1.63,12.12,4.9,16.41c3.27,4.29,8.91,7.95,16.91,10.99c-5.53,5.64-15.39,18.1-29.6,37.38
		c-13.76,18.38-26.33,33.94-37.72,46.68c-102.94,15.79-154.42,36.25-154.42,61.4c0,4.51,2.4,8.23,7.19,11.16
		c4.79,2.93,11.14,4.4,19.03,4.4c12.85,0,26.13-2.54,39.83-7.61c13.7-5.07,26.89-11.67,39.58-19.79s24.47-16.66,35.35-25.62
		c10.88-8.96,20.21-17.28,27.99-24.95c11.27-3.16,20.24-6,26.89-8.54c6.65-2.54,12.6-5.35,17.84-8.46
		c5.24-3.1,10.2-6.68,14.88-10.74c3.22-2.79,6.23-5.56,9.05-8.3l0,0.01c8.79-8.23,18.27-15.39,28.41-21.48
		c-0.79,0.79-1.61,1.67-2.45,2.62c-0.85,0.96-1.78,1.94-2.79,2.96c-18.27,18.27-27.4,33.26-27.4,44.99c0,3.95,1.86,5.92,5.58,5.92
		c6.43,0,14.71-3.78,24.86-11.33c10.15-7.55,20.69-16.58,31.63-27.06v-0.18c15.97-13.51,26.24-20.28,30.78-20.28
		c1.35,0,2.03,0.57,2.03,1.69c0,1.69-8.23,11.73-24.69,30.11L777,628.16h13.19c8.34-7.67,17.19-15.48,26.55-23.42
		c9.36-7.95,19.39-15.5,30.11-22.66c10.71-7.16,18.72-10.74,24.02-10.74c4.17,0,4.93,1.83,2.28,5.5
		c-2.65,3.67-7.42,8.54-14.29,14.63c-5.98,5.07-10.66,10.29-14.04,15.64c-3.38,5.36-5.07,10.18-5.07,14.46
		c0,1.92,0.59,3.78,1.78,5.58c1.18,1.8,3.13,2.71,5.83,2.71c4.28,0,9.67-2.06,16.15-6.17c6.48-4.11,12.99-8.96,19.54-14.54
		c3.44-2.94,6.93-6,10.47-9.17c-2.35,4.43-3.53,9.09-3.53,13.99c0,10.38,3.95,15.56,11.84,15.56c4.62,0,10.99-2.76,19.11-8.29
		c1.24-0.9,2.82-1.92,4.74-3.04l-25.2,31.8l-2.37,1.35l-24.69,10.49c-11.73,4.85-21.99,10.06-30.78,15.65
		c-8.79,5.58-15.56,11.19-20.3,16.83c-4.74,5.64-7.1,10.82-7.1,15.56c0,2.93,1.01,5.35,3.04,7.27c2.03,1.92,4.74,2.88,8.12,2.88
		c3.83,0,7.95-1.01,12.35-3.04c4.4-2.03,9.84-5.64,16.32-10.82c6.48-5.19,14.6-12.66,24.35-22.41c9.75-9.75,21.84-22.52,36.28-38.31
		c8.79-4.06,17.31-8.68,25.54-13.87c8.23-5.19,16.24-10.85,24.02-17c7.78-6.14,17.14-13.95,28.08-23.42v-2.88
		c-15.9,13.42-29.51,24.27-40.85,32.56C941.15,629.09,930.18,635.83,919.58,641.01z M698.53,521.1c0-7.78,2.99-16.21,8.96-25.29
		c5.98-9.08,14.8-17.48,26.47-25.2c11.67-7.72,26.38-13.9,44.14-18.52c17.76-4.62,37.97-6.54,60.63-5.75
		c-11.39,2.71-23.17,8.29-35.35,16.74c-12.18,8.46-23.65,17.99-34.42,28.58c-10.77,10.6-20.19,20.49-28.25,29.68
		c-8.06,9.19-15.08,17.17-21.06,23.93C705.57,541.34,698.53,533.28,698.53,521.1z M620.39,661.9
		c-13.42,11.33-28.98,21.59-46.68,30.78c-17.7,9.19-34.73,13.78-51.08,13.78c-7.21,0-13.13-1.3-17.76-3.89
		c-4.62-2.59-6.93-5.81-6.93-9.64c0-8.68,7.3-16.72,21.9-24.1c14.6-7.39,33.09-13.84,55.48-19.37
		c22.38-5.53,46.48-10.21,72.31-14.04C642.88,641.75,633.8,650.57,620.39,661.9z M921.61,617.5c-8.68,6.43-15.28,9.64-19.79,9.64
		c-1.58,0-3.07-0.53-4.48-1.61c-1.41-1.07-2.11-2.28-2.11-3.64c0-3.95,3.04-10.09,9.13-18.44c6.09-8.34,13.28-15.73,21.56-22.16
		c8.29-6.43,15.59-9.64,21.9-9.64c2.14,0,3.97,0.54,5.5,1.61c1.52,1.07,2.28,2.51,2.28,4.31c0,4.06-3.5,10.12-10.49,18.18
		C938.13,603.83,930.3,611.08,921.61,617.5z M869.01,688.37c-9.36,10.15-17.39,17.53-24.1,22.16c-6.71,4.62-12.77,6.93-18.18,6.93
		c-2.71,0-4.9-0.68-6.6-2.03c-1.69-1.35-2.54-3.21-2.54-5.58c0-4.51,2.82-9.92,8.46-16.24c6.65-7.1,14.94-13.28,24.86-18.52
		c9.92-5.24,25.37-12.38,46.34-21.4C892.41,660.46,883,672.02,869.01,688.37z"/>
	<path class="st0" d="M1243.81,533.61c4.62-4.96,11.87-12.6,21.73-22.92c9.87-10.32,19.76-19.9,29.68-28.75
		c9.92-8.85,20.97-16.83,33.15-23.93s23.34-10.66,33.49-10.66c5.52,0,9.95,1.02,13.28,3.04c3.32,2.03,4.99,4.57,4.99,7.61
		c0,1.24-0.34,1.86-1.01,1.86c-0.23,0-0.74-0.14-1.52-0.42c-0.79-0.28-1.41-0.42-1.86-0.42c-3.5,0-5.24,1.75-5.24,5.24
		c0,3.5,1.86,5.24,5.58,5.24c1.92,0,3.49-0.79,4.74-2.37c1.24-1.58,1.86-3.66,1.86-6.26c0-4.96-1.92-8.85-5.75-11.67
		c-3.83-2.82-8.96-4.23-15.39-4.23c-10.15,0-21.17,3.36-33.07,10.06c-11.9,6.71-23.57,15-35.01,24.86
		c-11.45,9.87-23.48,21.31-36.11,34.33c-12.63,13.02-22.38,23.15-29.26,30.36c-4.85,5.19-11.28,11.98-19.28,20.38
		c-8.01,8.4-16.44,16.89-25.29,25.46c-8.85,8.57-18.07,16.74-27.65,24.52c-9.59,7.78-18.04,13.7-25.37,17.76l4.74-5.24
		c13.3-14.21,23.59-25.79,30.87-34.76s18.46-24.38,33.57-46.26c5.52-8.23,10.32-15.48,14.38-21.73c4.06-6.26,8.74-13.5,14.04-21.73
		c5.3-8.23,8.68-13.42,10.15-15.56c3.95-5.41,15.62-19,35.01-40.76l-2.2-1.69c-6.65,4.29-13.76,9.64-21.31,16.07
		c-7.55,6.43-15.11,13.39-22.66,20.89c-7.55,7.5-15.79,15.96-24.69,25.37c-8.91,9.42-18.1,19.31-27.57,29.68l-12.18,13.19
		c-11.28,12.18-20.24,21.62-26.89,28.33c-6.65,6.71-12.94,12.83-18.86,18.35c-5.92,5.53-13.05,11.56-21.39,18.1
		c-8.35,6.54-17.03,12.46-26.05,17.76l6.93-7.78c16.8-18.38,29.77-33.07,38.9-44.06c9.13-10.99,15.7-19.51,19.7-25.54
		c4-6.03,9.78-15.36,17.34-27.99c9.36-15.79,18.41-29.43,27.15-40.93c8.74-11.5,19.08-22.44,31.04-32.81
		c5.07-4.51,7.61-7.16,7.61-7.95c0-0.45-0.45-0.68-1.35-0.68c-0.9,0-1.72,0.25-2.45,0.76c-0.73,0.51-1.55,1.24-2.45,2.2
		c-0.9,0.96-2.03,2.11-3.38,3.47c-7.56,7.56-15.48,14.49-23.76,20.8c-8.29,6.32-16.44,9.47-24.44,9.47c-5.53,0-8.29-2.42-8.29-7.27
		c0-0.34,0.11-1.63,0.34-3.89c0.22-2.25,0.34-3.66,0.34-4.23c0-6.2-2.77-11.3-8.29-15.31c-5.53-4-12.8-6-21.82-6
		c-12.07,0-22.66,2.48-31.8,7.44c-9.13,4.96-16.24,11.19-21.31,18.69c-5.07,7.5-7.61,14.69-7.61,21.56c0,6.88,2.37,12.35,7.1,16.41
		c4.74,4.06,11.05,6.09,18.94,6.09c19.17,0,35.91-9.47,50.23-28.41l-1.01-1.69c-7.89,9.25-15.7,16.18-23.43,20.8
		c-7.72,4.62-16.21,6.93-25.46,6.93c-6.99,0-12.71-1.89-17.17-5.67c-4.46-3.78-6.68-8.6-6.68-14.46c0-5.98,2.37-12.54,7.1-19.7
		c4.74-7.16,11.59-13.22,20.55-18.18c8.96-4.96,19.03-7.44,30.19-7.44c5.07,0,9.41,0.76,13.02,2.28c3.61,1.52,6.31,3.38,8.12,5.58
		c1.8,2.2,2.71,4.2,2.71,6c0,0.68-0.23,2.54-0.68,5.58c-0.45,3.04-0.68,4.74-0.68,5.07c0,8.12,4.62,12.18,13.87,12.18
		c8.79,0,18.49-3.72,29.09-11.16l-12.18,12.18c-19.51,19.51-38.22,42.85-56.15,70.02l-2.37,4.06c-0.34,0.57-3.33,5.41-8.96,14.55
		c-9.81,15.79-18.29,28.67-25.46,38.65c-7.16,9.98-14.4,18.24-21.73,24.78l1.35,2.03c9.13-3.83,18.94-9.75,29.43-17.76
		c10.49-8,20.92-16.94,31.29-26.81c10.37-9.87,20.58-20.07,30.61-30.61c10.03-10.54,19.11-20.44,27.23-29.68l6.6-7.27
		c7.55-8.34,16.57-17.76,27.06-28.25s19.76-19.48,27.82-26.98c8.06-7.5,12.49-11.25,13.28-11.25c0.9,0-2.2,3.55-9.3,10.66
		c-6.09,6.43-12.91,13.93-20.47,22.49l-11.16,12.52c-18.61,21.31-39.35,51.92-62.24,91.84c-6.2,11.05-16.12,24.08-29.77,39.07
		l1.35,2.03c8.34-3.61,17-8.74,25.96-15.39c8.96-6.65,18.32-14.6,28.08-23.85c9.75-9.24,21.06-20.49,33.91-33.74
		C1224.7,552.92,1235.36,542.07,1243.81,533.61z"/>
	<path class="st0" d="M1475.11,620.8c-11.33,8.29-22.3,15.03-32.9,20.21l62.92-71.71h-14.21l-11.67,13.53
		c0.9-2.82,1.35-4.91,1.35-6.26c0-4.85-3.38-7.27-10.15-7.27c-5.53,0-11.56,1.1-18.1,3.3c-6.54,2.2-12.85,5.3-18.94,9.3
		c-4,2.63-7.52,5.6-10.58,8.89c-4.27,3.68-9.47,8.21-15.64,13.6c-7.67,6.71-14.74,12.24-21.23,16.58
		c-6.49,4.34-11.7,6.51-15.64,6.51c-1.13,0-2.23-0.48-3.3-1.44c-1.07-0.96-1.61-2-1.61-3.13c0-2.82,4.4-7.55,13.19-14.21
		c8.23-5.98,14.15-11.53,17.76-16.66c3.61-5.13,5.41-10.29,5.41-15.48c0-5.3-1.92-7.95-5.75-7.95c-7.33,0-16.13,3.44-26.38,10.32
		c-10.26,6.88-22.38,16.13-36.36,27.74c7.21-9.24,12.01-15.73,14.38-19.45s3.55-7.5,3.55-11.33c0-4.85-1.92-7.27-5.75-7.27
		c-6.88,0-18.89,7.95-36.03,23.85v0.19c-1.92,1.58-4.4,3.63-7.44,6.15c-6.88,5.7-13,10.63-18.35,14.8
		c-5.36,4.17-10.18,7.53-14.46,10.06c-4.29,2.54-7.5,3.81-9.64,3.81c-1.58,0-2.37-0.85-2.37-2.54c0-3.27,8.79-14.43,26.39-33.49
		c1.58-1.8,3.49-4.09,5.75-6.85c2.25-2.76,5.19-6.29,8.79-10.57l4.4-5.41l-14.21,1.01l-10.66,12.52c0.11-0.56,0.25-1.29,0.42-2.2
		c0.17-0.9,0.28-1.61,0.34-2.11c0.06-0.51,0.14-1.04,0.25-1.61c-0.11-2.71-0.93-4.65-2.45-5.84c-1.52-1.18-3.92-1.78-7.19-1.78
		c-6.65,0-13.5,1.24-20.55,3.72c-7.05,2.48-13.42,5.86-19.11,10.15c-5.7,4.29-10.23,9.22-13.62,14.8c-3.38,5.58-5.07,11.25-5.07,17
		c0,5.07,1.07,8.94,3.21,11.59c2.14,2.65,4.91,3.97,8.29,3.97c7.67,0,19.56-7.38,35.69-22.16c-3.04,7.1-4.57,12.63-4.57,16.57
		c0,3.72,1.63,5.58,4.91,5.58c4.96,0,10.68-2.31,17.17-6.93c6.48-4.62,16.49-12.57,30.02-23.85l8.62-7.27v-0.52
		c15.97-13.51,26.24-20.28,30.78-20.28c1.35,0,2.03,0.57,2.03,1.69c0,1.69-8.23,11.73-24.69,30.11l-22.5,25.37h13.19
		c8.34-7.67,17.19-15.48,26.55-23.42c9.36-7.95,19.39-15.5,30.11-22.66c10.71-7.16,18.72-10.74,24.02-10.74
		c4.17,0,4.93,1.83,2.28,5.5c-2.65,3.67-7.42,8.54-14.29,14.63c-5.98,5.07-10.66,10.29-14.04,15.64
		c-3.38,5.36-5.07,10.18-5.07,14.46c0,1.92,0.59,3.78,1.78,5.58c1.18,1.8,3.13,2.71,5.84,2.71c4.28,0,9.67-2.06,16.15-6.17
		c6.48-4.11,13-8.96,19.54-14.54c3.44-2.94,6.93-6,10.47-9.17c-2.34,4.43-3.53,9.09-3.53,13.99c0,10.38,3.95,15.56,11.84,15.56
		c4.62,0,10.99-2.76,19.11-8.29c1.24-0.9,2.82-1.92,4.74-3.04l-25.2,31.8l-2.37,1.35l-24.69,10.49
		c-11.73,4.85-21.99,10.06-30.78,15.65c-8.79,5.58-15.56,11.19-20.3,16.83c-4.74,5.64-7.1,10.82-7.1,15.56
		c0,2.93,1.01,5.35,3.04,7.27c2.03,1.92,4.74,2.88,8.12,2.88c3.83,0,7.95-1.01,12.35-3.04c4.4-2.03,9.84-5.64,16.32-10.82
		c6.49-5.19,14.6-12.66,24.36-22.41c9.75-9.75,21.84-22.52,36.28-38.31c8.79-4.06,17.31-8.68,25.54-13.87
		c8.23-5.19,16.24-10.85,24.02-17c7.78-6.14,17.14-13.95,28.08-23.42v-2.88C1500.05,601.66,1486.44,612.52,1475.11,620.8z
		 M1241.79,617.84c-8.68,6.43-15.34,9.64-19.96,9.64c-1.69,0-3.1-0.56-4.23-1.69c-1.13-1.13-1.69-2.54-1.69-4.23
		c0-3.49,3.07-9.47,9.22-17.93s13.36-16.01,21.65-22.66c8.29-6.65,15.81-9.98,22.58-9.98c4.28,0,6.43,1.97,6.43,5.92
		c0,4.62-3.5,10.99-10.49,19.11C1258.3,604.14,1250.47,611.42,1241.79,617.84z M1444.24,617.5c-8.68,6.43-15.28,9.64-19.79,9.64
		c-1.58,0-3.07-0.53-4.48-1.61c-1.41-1.07-2.11-2.28-2.11-3.64c0-3.95,3.04-10.09,9.13-18.44c6.09-8.34,13.28-15.73,21.56-22.16
		c8.29-6.43,15.59-9.64,21.9-9.64c2.14,0,3.97,0.54,5.5,1.61c1.52,1.07,2.28,2.51,2.28,4.31c0,4.06-3.5,10.12-10.49,18.18
		C1460.76,603.83,1452.92,611.08,1444.24,617.5z M1391.64,688.37c-9.36,10.15-17.39,17.53-24.1,22.16
		c-6.71,4.62-12.77,6.93-18.18,6.93c-2.71,0-4.91-0.68-6.6-2.03c-1.69-1.35-2.54-3.21-2.54-5.58c0-4.51,2.82-9.92,8.46-16.24
		c6.65-7.1,14.94-13.28,24.86-18.52c9.92-5.24,25.37-12.38,46.34-21.4C1415.04,660.46,1405.62,672.02,1391.64,688.37z"/>
</g>
</svg>
