<?xml version="1.0" encoding="utf-8"?>
<!-- Generator: Adobe Illustrator 26.1.0, SVG Export Plug-In . SVG Version: 6.00 Build 0)  -->
<svg version="1.1" id="Layer_1" xmlns="http://www.w3.org/2000/svg" xmlns:xlink="http://www.w3.org/1999/xlink" x="0px" y="0px"
	 viewBox="0 0 1222.02 422.47" style="enable-background:new 0 0 1222.02 422.47;" xml:space="preserve">
<g>
	<path d="M969.21,335.09c-4.59,4.73-9.69,9.52-15.3,14.38c-5.61,4.86-11.55,9.15-17.83,12.87c-6.28,3.72-13.41,7.09-21.37,10.13
		c-7.97,3.04-18.71,6.45-32.21,10.23c-9.32,9.18-20.5,19.15-33.53,29.88c-13.04,10.74-27.15,20.97-42.34,30.69
		c-15.2,9.73-31,17.63-47.41,23.71c-16.41,6.08-32.31,9.12-47.71,9.12c-9.45,0-17.05-1.76-22.79-5.27
		c-5.74-3.51-8.61-7.97-8.61-13.37c0-30.12,61.66-54.64,184.98-73.54c13.64-15.26,28.7-33.9,45.18-55.92
		c17.02-23.1,28.84-38.02,35.46-44.78c-9.59-3.65-16.34-8.03-20.26-13.17c-3.92-5.13-5.88-11.68-5.88-19.65
		c0-13.37,4.93-26.14,14.79-38.29c9.86-12.16,23.47-22.56,40.82-31.2c17.35-8.64,37.58-14.92,60.68-18.84
		c23.1-3.92,47.34-4.59,72.73-2.03v2.84c-16.61-0.54-33.63,4.93-51.05,16.41c-17.42,11.48-34.01,26.27-49.74,44.37
		c-15.74,18.1-30.63,37.68-44.67,58.75c14.18,0,25.86-1.99,35.05-5.98c9.18-3.98,16.41-9.22,21.68-15.7
		c5.27-6.48,10.13-14.38,14.59-23.7h3.65c-6.62,16.61-15.6,28.8-26.95,36.57c-11.35,7.77-25.87,11.65-43.56,11.65h-7.09l-7.9,11.55
		c-11.89,17.56-22.29,31.91-31.2,43.05s-20.06,23.81-33.43,37.99c13.78-3.92,25.15-7.97,34.14-12.16
		c8.98-4.19,16.21-8.34,21.68-12.46c5.47-4.12,13.95-11.31,25.43-21.58V335.09z M861.83,388.17c-30.93,4.59-59.8,10.2-86.61,16.82
		c-26.81,6.62-48.96,14.35-66.45,23.2c-17.49,8.84-26.24,18.47-26.24,28.87c0,4.59,2.77,8.44,8.31,11.55
		c5.54,3.11,12.63,4.66,21.27,4.66c19.59,0,39.98-5.5,61.19-16.51c21.2-11.01,39.84-23.3,55.92-36.87
		C845.28,406.3,856.16,395.73,861.83,388.17z M948.14,280.18c7.16-8.1,15.57-17.66,25.22-28.67c9.66-11.01,20.93-22.86,33.83-35.56
		c12.9-12.69,26.64-24.11,41.23-34.24c14.59-10.13,28.7-16.82,42.34-20.06c-27.15-0.94-51.36,1.35-72.63,6.89
		c-21.27,5.54-38.9,12.94-52.88,22.19c-13.98,9.25-24.55,19.32-31.71,30.19c-7.16,10.87-10.74,20.97-10.74,30.29
		C922.81,265.8,931.25,275.45,948.14,280.18z"/>
	<path d="M964.75,339.54l-0.41-3.24c10.26-9.32,22.29-18.17,36.06-26.54h18.23l-47.81,53.49c-3.38,3.78-5.54,7.29-6.48,10.54
		c-0.94,3.24-0.13,4.86,2.43,4.86c6.75,0,16.82-5,30.19-14.99c13.37-9.99,25.73-20.53,37.08-31.61v3.45
		c-13.1,12.56-25.73,23.37-37.89,32.42c-12.16,9.05-22.08,13.57-29.78,13.57c-4.46,0-6.69-2.36-6.69-7.09
		c0-14.05,10.94-32.01,32.82-53.89c1.21-1.22,2.33-2.4,3.34-3.55c1.01-1.15,1.99-2.19,2.94-3.14
		C986.63,321.11,975.29,329.69,964.75,339.54z M1034.85,267.01c2.97,0,4.46,1.82,4.46,5.47c0,2.16-0.61,3.92-1.82,5.27
		c-1.21,1.35-2.77,2.03-4.66,2.03c-3.65,0-5.47-1.62-5.47-4.86c0-1.89,0.74-3.68,2.23-5.37
		C1031.07,267.86,1032.82,267.01,1034.85,267.01z"/>
	<path d="M1028.57,339.95v-3.24c20.53-19.04,34.91-28.57,43.15-28.57c4.59,0,6.89,2.91,6.89,8.71c0,4.59-1.42,9.12-4.25,13.57
		c-2.84,4.46-8.58,12.23-17.22,23.3c16.75-13.91,31.27-24.99,43.56-33.23c12.29-8.24,22.83-12.36,31.61-12.36
		c4.59,0,6.89,3.17,6.89,9.52c0,6.21-2.16,12.39-6.48,18.54c-4.32,6.15-11.42,12.8-21.27,19.96c-10.54,7.97-15.8,13.64-15.8,17.02
		c0,1.35,0.64,2.6,1.93,3.75c1.28,1.15,2.6,1.72,3.95,1.72c4.73,0,10.97-2.6,18.74-7.8c7.76-5.2,16.24-11.82,25.43-19.86
		c9.18-8.03,16.61-14.49,22.29-19.35v3.44c-8.24,7.7-16.28,14.89-24.11,21.58c-7.83,6.69-15.64,12.49-23.4,17.42
		c-7.77,4.93-14.22,7.4-19.35,7.4c-3.24,0-5.57-1.08-6.99-3.24c-1.42-2.16-2.13-4.39-2.13-6.69c0-5.13,2.03-10.91,6.08-17.32
		c4.05-6.41,9.66-12.66,16.82-18.74c8.24-7.29,13.94-13.13,17.12-17.53c3.17-4.39,2.26-6.58-2.73-6.58
		c-6.35,0-15.94,4.29-28.77,12.86c-12.83,8.58-24.85,17.63-36.06,27.15c-11.21,9.52-21.81,18.88-31.81,28.06h-15.8l26.95-30.39
		c19.72-22.01,29.58-34.04,29.58-36.06c0-1.35-0.81-2.03-2.43-2.03C1064.97,310.98,1050.86,320.63,1028.57,339.95z"/>
	<path d="M1164.72,405.59l30.19-38.09c-2.3,1.35-4.19,2.57-5.67,3.65c-9.73,6.62-17.36,9.93-22.89,9.93
		c-9.45,0-14.18-6.21-14.18-18.64c0-7.56,2.33-14.65,6.99-21.27c4.66-6.62,10.64-12.32,17.93-17.12
		c7.29-4.79,14.86-8.51,22.69-11.14c7.83-2.63,15.06-3.95,21.68-3.95c8.1,0,12.16,2.91,12.16,8.71c0,1.62-0.54,4.12-1.62,7.5
		l13.98-16.21h17.02l-75.37,85.9c12.69-6.21,25.83-14.28,39.41-24.21c13.57-9.93,29.88-22.93,48.93-39v3.44
		c-13.1,11.35-24.31,20.7-33.63,28.06c-9.32,7.36-18.91,14.15-28.77,20.36c-9.86,6.21-20.06,11.75-30.59,16.61
		c-17.29,18.91-31.77,34.2-43.46,45.89c-11.68,11.68-21.41,20.63-29.17,26.84c-7.77,6.21-14.28,10.54-19.55,12.97
		c-5.27,2.43-10.2,3.65-14.79,3.65c-4.05,0-7.29-1.15-9.73-3.44c-2.43-2.3-3.65-5.2-3.65-8.71c0-5.67,2.84-11.89,8.51-18.64
		c5.67-6.76,13.78-13.47,24.31-20.16s22.83-12.93,36.87-18.74l29.58-12.56L1164.72,405.59z M1160.87,410.05
		c-25.12,10.8-43.62,19.35-55.51,25.63c-11.88,6.28-21.81,13.68-29.78,22.19c-6.75,7.56-10.13,14.05-10.13,19.45
		c0,2.84,1.01,5.07,3.04,6.69c2.03,1.62,4.66,2.43,7.9,2.43c6.48,0,13.75-2.77,21.78-8.31c8.04-5.54,17.66-14.38,28.87-26.54
		C1143.78,432,1155.06,418.15,1160.87,410.05z M1230.77,318.88c0-2.16-0.91-3.88-2.74-5.17c-1.82-1.28-4.02-1.92-6.58-1.92
		c-7.57,0-16.31,3.85-26.24,11.55c-9.93,7.7-18.54,16.55-25.83,26.54c-7.29,10-10.94,17.36-10.94,22.08c0,1.62,0.84,3.07,2.53,4.36
		c1.69,1.29,3.48,1.92,5.37,1.92c5.4,0,13.3-3.85,23.7-11.55c10.4-7.7,19.79-16.38,28.16-26.03
		C1226.58,331,1230.77,323.74,1230.77,318.88z"/>
	<path d="M1557.16,279.37c8.24-8.64,19.92-20.77,35.05-36.37c15.12-15.6,29.54-29.31,43.25-41.13
		c13.71-11.82,27.69-21.74,41.94-29.78c14.25-8.03,27.45-12.06,39.61-12.06c7.7,0,13.84,1.69,18.44,5.07
		c4.59,3.38,6.89,8.04,6.89,13.98c0,3.11-0.74,5.61-2.23,7.5c-1.49,1.89-3.38,2.84-5.67,2.84c-4.46,0-6.69-2.09-6.69-6.28
		c0-4.19,2.09-6.28,6.28-6.28c0.54,0,1.28,0.17,2.23,0.51c0.94,0.34,1.55,0.51,1.82,0.51c0.81,0,1.22-0.74,1.22-2.23
		c0-3.65-2-6.69-5.98-9.12c-3.99-2.43-9.29-3.65-15.9-3.65c-12.16,0-25.53,4.25-40.12,12.76c-14.59,8.51-27.83,18.07-39.71,28.67
		c-11.89,10.6-23.74,22.08-35.56,34.44c-11.82,12.36-20.5,21.51-26.03,27.45c-10.13,10.13-22.89,23.13-38.29,39
		c-15.4,15.87-28.94,29.35-40.62,40.42c-11.68,11.08-22.89,20.6-33.63,28.57c-10.74,7.97-21.11,14.12-31.1,18.44l-1.62-2.43
		c16.34-17.96,28.23-33.56,35.66-46.8c27.42-47.81,52.27-84.48,74.56-110.01l13.37-14.99c9.05-10.26,17.22-19.25,24.51-26.95
		c8.51-8.51,12.22-12.76,11.14-12.76c-0.95,0-6.25,4.49-15.9,13.47c-9.66,8.98-20.77,19.75-33.33,32.31
		c-12.56,12.56-23.37,23.84-32.42,33.83l-7.9,8.71c-9.72,11.08-20.6,22.93-32.62,35.56c-12.02,12.63-24.25,24.85-36.67,36.67
		c-12.43,11.82-24.92,22.52-37.48,32.11c-12.56,9.59-24.31,16.68-35.25,21.27l-1.62-2.43c8.78-7.83,17.46-17.73,26.03-29.68
		c8.58-11.95,18.74-27.38,30.49-46.29c6.75-10.94,10.33-16.75,10.74-17.42l2.84-4.86c21.48-32.55,43.89-60.51,67.26-83.88
		l14.59-14.59c-12.7,8.91-24.31,13.37-34.85,13.37c-11.08,0-16.61-4.86-16.61-14.59c0-0.41,0.27-2.43,0.81-6.08
		c0.54-3.65,0.81-5.88,0.81-6.69c0-2.16-1.08-4.56-3.24-7.19c-2.16-2.63-5.4-4.86-9.72-6.69c-4.32-1.82-9.52-2.74-15.6-2.74
		c-13.37,0-25.43,2.97-36.16,8.91c-10.74,5.95-18.94,13.2-24.62,21.78c-5.67,8.58-8.51,16.45-8.51,23.6c0,7.02,2.67,12.8,8,17.32
		c5.33,4.53,12.19,6.79,20.56,6.79c11.07,0,21.24-2.77,30.49-8.31c9.25-5.54,18.6-13.84,28.06-24.92l1.21,2.03
		c-17.15,22.69-37.21,34.04-60.17,34.04c-9.46,0-17.02-2.43-22.69-7.29s-8.51-11.41-8.51-19.65c0-8.24,3.04-16.85,9.12-25.83
		c6.08-8.98,14.59-16.44,25.53-22.39c10.94-5.94,23.63-8.91,38.09-8.91c10.8,0,19.52,2.4,26.14,7.19c6.62,4.8,9.93,10.91,9.93,18.34
		c0,0.68-0.14,2.36-0.4,5.06c-0.27,2.7-0.41,4.25-0.41,4.66c0,5.81,3.31,8.71,9.93,8.71c9.59,0,19.35-3.78,29.28-11.35
		c9.93-7.56,19.42-15.87,28.47-24.92c1.62-1.62,2.97-3,4.05-4.15c1.08-1.15,2.06-2.03,2.94-2.63c0.88-0.61,1.85-0.91,2.94-0.91
		c1.08,0,1.62,0.27,1.62,0.81c0,0.95-3.04,4.12-9.12,9.52c-14.32,12.43-26.71,25.53-37.18,39.3
		c-10.47,13.78-21.31,30.12-32.52,49.03c-9.05,15.13-15.97,26.31-20.77,33.53c-4.79,7.23-12.66,17.42-23.6,30.59
		s-26.47,30.76-46.6,52.78l-8.31,9.32c10.8-6.35,21.2-13.44,31.2-21.27c9.99-7.83,18.54-15.06,25.63-21.68
		c7.09-6.62,14.62-13.94,22.59-21.98c7.97-8.03,18.71-19.35,32.21-33.94l14.59-15.8c11.35-12.43,22.35-24.28,33.02-35.56
		c10.67-11.28,20.53-21.41,29.58-30.39c9.05-8.98,18.1-17.32,27.15-25.02c9.05-7.7,17.56-14.11,25.53-19.25l2.63,2.03
		c-23.23,26.07-37.21,42.34-41.94,48.83c-1.76,2.57-5.81,8.78-12.16,18.64c-6.35,9.86-11.95,18.54-16.82,26.03
		s-10.61,16.18-17.22,26.03c-18.1,26.21-31.5,44.67-40.22,55.41c-8.71,10.74-21.04,24.62-36.97,41.63l-5.67,6.28
		c8.78-4.86,18.91-11.95,30.39-21.27c11.48-9.32,22.52-19.11,33.13-29.38c10.6-10.26,20.7-20.43,30.29-30.49
		C1543.65,293.72,1551.35,285.58,1557.16,279.37z"/>
	<path d="M1660.08,335.9l-10.33,8.71c-16.21,13.51-28.2,23.03-35.96,28.57c-7.77,5.54-14.62,8.31-20.56,8.31
		c-3.92,0-5.88-2.23-5.88-6.69c0-4.73,1.82-11.35,5.47-19.86c-19.32,17.7-33.57,26.54-42.75,26.54c-4.05,0-7.36-1.59-9.93-4.76
		c-2.56-3.17-3.85-7.8-3.85-13.88c0-6.89,2.03-13.67,6.08-20.36s9.49-12.59,16.31-17.73c6.82-5.13,14.45-9.18,22.89-12.16
		c8.44-2.97,16.64-4.46,24.62-4.46c3.92,0,6.79,0.71,8.61,2.13c1.82,1.42,2.8,3.75,2.94,6.99c-0.14,0.68-0.24,1.32-0.3,1.92
		c-0.07,0.61-0.2,1.45-0.4,2.53c-0.2,1.08-0.38,1.96-0.51,2.63l12.76-14.99l17.02-1.21l-5.27,6.48c-4.32,5.13-7.84,9.36-10.54,12.66
		c-2.7,3.31-5,6.05-6.89,8.21c-21.07,22.83-31.61,36.2-31.61,40.11c0,2.03,0.94,3.04,2.84,3.04c2.56,0,6.41-1.52,11.55-4.56
		c5.13-3.04,10.9-7.06,17.32-12.05c6.41-5,13.74-10.91,21.98-17.73c8.24-6.82,13.03-10.77,14.38-11.85V335.9z M1606.59,310.98
		c-8.1,0-17.12,3.99-27.05,11.95c-9.93,7.97-18.57,17.02-25.93,27.15s-11.04,17.29-11.04,21.48c0,2.03,0.68,3.72,2.03,5.07
		c1.35,1.35,3.04,2.03,5.07,2.03c5.54,0,13.5-3.85,23.91-11.55c10.4-7.7,19.79-16.41,28.16-26.14c8.37-9.72,12.56-17.35,12.56-22.89
		C1614.29,313.34,1611.72,310.98,1606.59,310.98z"/>
	<path d="M1654.61,339.95v-3.24c20.53-19.04,34.91-28.57,43.15-28.57c4.59,0,6.89,2.91,6.89,8.71c0,4.59-1.42,9.12-4.25,13.57
		c-2.84,4.46-8.58,12.23-17.22,23.3c16.75-13.91,31.27-24.99,43.56-33.23c12.29-8.24,22.82-12.36,31.61-12.36
		c4.59,0,6.89,3.17,6.89,9.52c0,6.21-2.16,12.39-6.48,18.54c-4.32,6.15-11.42,12.8-21.27,19.96c-10.54,7.97-15.8,13.64-15.8,17.02
		c0,1.35,0.64,2.6,1.92,3.75c1.28,1.15,2.6,1.72,3.95,1.72c4.73,0,10.97-2.6,18.74-7.8c7.77-5.2,16.24-11.82,25.43-19.86
		c9.18-8.03,16.61-14.49,22.29-19.35v3.44c-8.24,7.7-16.28,14.89-24.11,21.58c-7.83,6.69-15.64,12.49-23.4,17.42
		c-7.77,4.93-14.22,7.4-19.35,7.4c-3.24,0-5.57-1.08-6.99-3.24c-1.42-2.16-2.13-4.39-2.13-6.69c0-5.13,2.03-10.91,6.08-17.32
		c4.05-6.41,9.66-12.66,16.82-18.74c8.24-7.29,13.95-13.13,17.12-17.53c3.17-4.39,2.26-6.58-2.74-6.58
		c-6.35,0-15.94,4.29-28.77,12.86c-12.83,8.58-24.85,17.63-36.06,27.15c-11.21,9.52-21.81,18.88-31.81,28.06h-15.8l26.95-30.39
		c19.72-22.01,29.58-34.04,29.58-36.06c0-1.35-0.81-2.03-2.43-2.03C1691.01,310.98,1676.89,320.63,1654.61,339.95z"/>
	<path d="M1790.76,405.59l30.19-38.09c-2.3,1.35-4.19,2.57-5.67,3.65c-9.72,6.62-17.36,9.93-22.89,9.93
		c-9.45,0-14.18-6.21-14.18-18.64c0-7.56,2.33-14.65,6.99-21.27c4.66-6.62,10.64-12.32,17.93-17.12
		c7.29-4.79,14.86-8.51,22.69-11.14c7.83-2.63,15.06-3.95,21.68-3.95c8.1,0,12.16,2.91,12.16,8.71c0,1.62-0.54,4.12-1.62,7.5
		l13.98-16.21h17.02l-75.37,85.9c12.69-6.21,25.83-14.28,39.41-24.21c13.57-9.93,29.88-22.93,48.93-39v3.44
		c-13.1,11.35-24.31,20.7-33.63,28.06c-9.32,7.36-18.91,14.15-28.77,20.36c-9.86,6.21-20.06,11.75-30.59,16.61
		c-17.29,18.91-31.77,34.2-43.46,45.89c-11.68,11.68-21.41,20.63-29.17,26.84c-7.77,6.21-14.28,10.54-19.55,12.97
		c-5.27,2.43-10.2,3.65-14.79,3.65c-4.05,0-7.29-1.15-9.72-3.44c-2.43-2.3-3.65-5.2-3.65-8.71c0-5.67,2.84-11.89,8.51-18.64
		c5.67-6.76,13.78-13.47,24.31-20.16c10.54-6.69,22.83-12.93,36.87-18.74l29.58-12.56L1790.76,405.59z M1786.91,410.05
		c-25.12,10.8-43.63,19.35-55.51,25.63c-11.88,6.28-21.81,13.68-29.78,22.19c-6.75,7.56-10.13,14.05-10.13,19.45
		c0,2.84,1.01,5.07,3.04,6.69c2.03,1.62,4.66,2.43,7.9,2.43c6.48,0,13.75-2.77,21.78-8.31c8.04-5.54,17.66-14.38,28.87-26.54
		C1769.82,432,1781.1,418.15,1786.91,410.05z M1856.8,318.88c0-2.16-0.91-3.88-2.73-5.17c-1.82-1.28-4.02-1.92-6.58-1.92
		c-7.57,0-16.31,3.85-26.24,11.55c-9.93,7.7-18.54,16.55-25.83,26.54c-7.29,10-10.94,17.36-10.94,22.08c0,1.62,0.84,3.07,2.53,4.36
		c1.69,1.29,3.48,1.92,5.37,1.92c5.4,0,13.3-3.85,23.7-11.55c10.4-7.7,19.79-16.38,28.16-26.03
		C1852.62,331,1856.8,323.74,1856.8,318.88z"/>
</g>
</svg>
